<svg dispay="none" xmlns="http://www.w3.org/2000/svg">
    <symbol id="logo" viewBox="0 0 88 32" fill="none">
        <path d="M10.6011 0.456055H16.1137L26.3906 31.1461H20.7993L18.2006 23.4952H8.43549L5.87609 31.1461H0.28479L10.6011 0.456055ZM17.2162 19.3023L13.3574 6.63729L9.34112 19.3023H17.2162Z" fill="white"/>
        <path d="M32.3708 0.456055L39.3008 11.7811L46.1915 0.456055H52.0978L42.4115 16.0172L51.7828 31.1461H45.8765L39.3008 20.2533L32.6858 31.1461H26.7401L36.1114 16.0172L26.4251 0.456055H32.3708Z" fill="white"/>
        <path d="M54.9125 31.1461V0.456055H60.3463V31.1461H54.9125Z" fill="#EC7979"/>
        <path d="M87.0874 5.68633H78.1492V31.1461H72.7548V5.68633H63.8166V0.456055H87.0874V5.68633Z" fill="#EC7979"/>
    </symbol>
	 <symbol id="facebook" viewBox="0 0 32 56" fill="none">
	 	<path d="M7.82696 55.7083H19.4936V32.3458H30.0053L31.1603 20.7375H19.4936V14.875C19.4936 14.1014 19.8009 13.3595 20.3479 12.8126C20.8949 12.2656 21.6367 11.9583 22.4103 11.9583H31.1603V0.291626H22.4103C18.5425 0.291626 14.8332 1.82808 12.0983 4.56299C9.36341 7.29789 7.82696 11.0072 7.82696 14.875V20.7375H1.99362L0.838623 32.3458H7.82696V55.7083Z" fill="#CCCCCC"/>
	 </symbol>
	 <symbol id="twitter" viewBox="0 0 59 48" fill="none">
	 	<path d="M52.2628 12.3247C52.3007 12.8351 52.3008 13.3426 52.3008 13.8501C52.3008 29.3813 40.4795 47.278 18.8758 47.278C12.2199 47.278 6.03659 45.3501 0.833252 42.0018C1.77825 42.1097 2.68825 42.1476 3.67117 42.1476C8.95906 42.1604 14.0972 40.3922 18.2574 37.128C15.8057 37.0836 13.4291 36.2748 11.4594 34.8143C9.48963 33.3539 8.02512 31.3148 7.27033 28.9818C7.99658 29.0897 8.72575 29.1626 9.48992 29.1626C10.5428 29.1626 11.6016 29.0168 12.5845 28.763C9.9238 28.2258 7.5313 26.7836 5.81381 24.6817C4.09631 22.5797 3.15986 19.9478 3.16367 17.2334V17.0876C4.72992 17.9597 6.547 18.5051 8.472 18.578C6.85934 17.5064 5.53702 16.0522 4.62299 14.3453C3.70897 12.6384 3.23166 10.7317 3.23367 8.7955C3.23367 6.61384 3.81409 4.613 4.832 2.86884C7.78407 6.50014 11.466 9.47089 15.6392 11.5887C19.8125 13.7065 24.3841 14.924 29.0578 15.1626C28.877 14.2876 28.7662 13.3805 28.7662 12.4705C28.7654 10.9275 29.0688 9.39942 29.6589 7.9737C30.249 6.54798 31.1144 5.25255 32.2055 4.16147C33.2966 3.07038 34.592 2.20503 36.0177 1.6149C37.4434 1.02476 38.9715 0.721403 40.5145 0.722169C43.8978 0.722169 46.9516 2.13967 49.0983 4.43217C51.7284 3.92355 54.2507 2.9634 56.5532 1.59425C55.6765 4.30913 53.84 6.61122 51.3878 8.06925C53.7205 7.80319 56.0003 7.18974 58.1516 6.24925C56.5449 8.59162 54.5539 10.6457 52.2628 12.3247Z" fill="#CCCCCC"/>
	 </symbol>
	 <symbol id="linkedin" viewBox="0 0 54 54" fill="none">
		 <path d="M50.3333 0.75H3.66667C2.89312 0.75 2.15125 1.05729 1.60427 1.60427C1.05729 2.15125 0.75 2.89312 0.75 3.66667V50.3333C0.75 51.1069 1.05729 51.8488 1.60427 52.3957C2.15125 52.9427 2.89312 53.25 3.66667 53.25H50.3333C51.1069 53.25 51.8488 52.9427 52.3957 52.3957C52.9427 51.8488 53.25 51.1069 53.25 50.3333V3.66667C53.25 2.89312 52.9427 2.15125 52.3957 1.60427C51.8488 1.05729 51.1069 0.75 50.3333 0.75ZM16.3221 45.4829H8.52875V20.4287H16.3221V45.4829ZM12.4254 17.0075C11.228 17.0075 10.0796 16.5318 9.23283 15.6851C8.3861 14.8384 7.91042 13.69 7.91042 12.4925C7.91042 11.295 8.3861 10.1466 9.23283 9.29991C10.0796 8.45319 11.228 7.9775 12.4254 7.9775C13.6229 7.9775 14.7713 8.45319 15.618 9.29991C16.4647 10.1466 16.9404 11.295 16.9404 12.4925C16.9404 13.69 16.4647 14.8384 15.618 15.6851C14.7713 16.5318 13.6229 17.0075 12.4254 17.0075ZM45.4858 45.4829H37.7012V33.3C37.7012 30.395 37.6488 26.6588 33.6529 26.6588C29.5988 26.6588 28.9833 29.8263 28.9833 33.0958V45.4858H21.2046V20.4317H28.6713V23.8558H28.7792C29.8146 21.8871 32.3579 19.8104 36.1408 19.8104C44.0275 19.8104 45.4829 24.9963 45.4829 31.7454V45.4829H45.4858Z" fill="#CCCCCC"/>
	 </symbol>
	 <symbol id="pinterest"  viewBox="0 0 60 60" fill="none">
	 	<path d="M21.3666 57.8251C24.1666 58.6709 26.9958 59.1667 29.9999 59.1667C37.7354 59.1667 45.1541 56.0938 50.6239 50.624C56.0937 45.1542 59.1666 37.7355 59.1666 30C59.1666 26.1698 58.4122 22.3771 56.9464 18.8384C55.4807 15.2998 53.3322 12.0845 50.6239 9.37609C47.9155 6.66772 44.7002 4.51932 41.1615 3.05355C37.6229 1.58779 33.8301 0.833374 29.9999 0.833374C26.1697 0.833374 22.377 1.58779 18.8383 3.05355C15.2997 4.51932 12.0843 6.66772 9.37597 9.37609C3.90616 14.8459 0.833252 22.2646 0.833252 30C0.833252 42.3959 8.62075 53.0417 19.6166 57.2417C19.3541 54.9667 19.0916 51.2042 19.6166 48.6084L22.9708 34.2C22.9708 34.2 22.1249 32.5084 22.1249 29.825C22.1249 25.8 24.6333 22.7959 27.4916 22.7959C29.9999 22.7959 31.1666 24.6334 31.1666 26.9959C31.1666 29.5042 29.5041 33.0917 28.6583 36.5334C28.1624 39.3917 30.1749 41.9 33.0916 41.9C38.2833 41.9 42.3083 36.3584 42.3083 28.5417C42.3083 21.5417 37.2916 16.7584 30.0874 16.7584C21.8624 16.7584 17.0208 22.8834 17.0208 29.3292C17.0208 31.8375 17.8374 34.375 19.1791 36.0375C19.4416 36.2125 19.4416 36.4459 19.3541 36.8834L18.5083 40.0625C18.5083 40.5584 18.1874 40.7334 17.6916 40.3834C13.9583 38.75 11.7999 33.4417 11.7999 29.1542C11.7999 19.9375 18.3333 11.5667 30.9333 11.5667C40.9666 11.5667 48.7833 18.7709 48.7833 28.3375C48.7833 38.3709 42.5708 46.4209 33.6749 46.4209C30.8458 46.4209 28.0749 44.9042 27.0833 43.125L25.1291 50.0375C24.4583 52.5459 22.6208 55.9 21.3666 57.9125V57.8251Z" fill="#CCCCCC"/>
	 </symbol>
	 <symbol id="instagram" viewBox="0 0 54 54" fill="none">
	 	<path d="M53.0956 16.2228C53.0662 14.0138 52.6527 11.8267 51.8735 9.75946C51.1979 8.01574 50.1659 6.43212 48.8436 5.1098C47.5213 3.78748 45.9377 2.75552 44.194 2.07988C42.1533 1.31383 39.9974 0.89962 37.8181 0.854875C35.0123 0.729458 34.1227 0.694458 27.0002 0.694458C19.8777 0.694458 18.9648 0.694458 16.1794 0.854875C14.0011 0.899949 11.8462 1.31416 9.80645 2.07988C8.06246 2.75505 6.4786 3.78684 5.15622 5.10922C3.83384 6.4316 2.80205 8.01546 2.12687 9.75946C1.3593 11.7986 0.945981 13.9539 0.904788 16.1324C0.779372 18.9411 0.741455 19.8307 0.741455 26.9532C0.741455 34.0757 0.741455 34.9857 0.904788 37.774C0.948538 39.9557 1.35979 42.1082 2.12687 44.1528C2.80318 45.8963 3.83574 47.4795 5.15856 48.8013C6.48138 50.1231 8.06539 51.1545 9.80937 51.8295C11.8436 52.6263 13.9988 53.0701 16.1823 53.142C18.991 53.2674 19.8806 53.3053 27.0031 53.3053C34.1256 53.3053 35.0385 53.3053 37.824 53.142C40.0032 53.099 42.1592 52.6858 44.1998 51.9199C45.9431 51.2434 47.5263 50.2112 48.8485 48.889C50.1707 47.5668 51.2029 45.9836 51.8794 44.2403C52.6465 42.1986 53.0577 40.0461 53.1015 37.8615C53.2269 35.0557 53.2648 34.1661 53.2648 27.0407C53.2589 19.9182 53.259 19.014 53.0956 16.2228ZM26.9827 40.4224C19.5335 40.4224 13.499 34.3878 13.499 26.9386C13.499 19.4895 19.5335 13.4549 26.9827 13.4549C30.5588 13.4549 33.9885 14.8755 36.5172 17.4042C39.0458 19.9329 40.4665 23.3625 40.4665 26.9386C40.4665 30.5147 39.0458 33.9444 36.5172 36.4731C33.9885 39.0018 30.5588 40.4224 26.9827 40.4224ZM41.0031 16.1003C40.5901 16.1007 40.1811 16.0196 39.7994 15.8617C39.4178 15.7039 39.071 15.4723 38.779 15.1802C38.487 14.8882 38.2554 14.5414 38.0975 14.1598C37.9396 13.7782 37.8586 13.3691 37.859 12.9561C37.859 12.5434 37.9402 12.1348 38.0982 11.7535C38.2561 11.3722 38.4876 11.0257 38.7794 10.7339C39.0713 10.4421 39.4177 10.2106 39.799 10.0526C40.1803 9.89471 40.589 9.81342 41.0017 9.81342C41.4144 9.81342 41.823 9.89471 42.2043 10.0526C42.5856 10.2106 42.9321 10.4421 43.2239 10.7339C43.5157 11.0257 43.7472 11.3722 43.9051 11.7535C44.0631 12.1348 44.1444 12.5434 44.1444 12.9561C44.1444 14.6945 42.7385 16.1003 41.0031 16.1003Z" fill="#CCCCCC"/>
		<path d="M26.983 35.6974C31.8203 35.6974 35.7417 31.7759 35.7417 26.9386C35.7417 22.1013 31.8203 18.1799 26.983 18.1799C22.1457 18.1799 18.2242 22.1013 18.2242 26.9386C18.2242 31.7759 22.1457 35.6974 26.983 35.6974Z" fill="#CCCCCC"/>
	 </symbol>
	 <symbol id="github" viewBox="0 0 60 58" fill="none">
	 	<path fill-rule="evenodd" clip-rule="evenodd" d="M30.0755 0.833374C14.0075 0.833374 0.984619 13.8563 0.984619 29.9242C0.984619 42.775 9.31754 53.6805 20.8792 57.5305C22.3346 57.793 22.8596 56.8975 22.8596 56.1275C22.8596 55.4363 22.8363 53.6046 22.8275 51.1809C14.7338 52.9367 13.0246 47.2784 13.0246 47.2784C11.7063 43.9184 9.79587 43.023 9.79587 43.023C7.15629 41.2175 9.99712 41.2584 9.99712 41.2584C12.9196 41.4625 14.4509 44.2567 14.4509 44.2567C17.0467 48.7017 21.2642 47.4184 22.915 46.6746C23.1805 44.7934 23.9388 43.51 24.7671 42.7838C18.3096 42.0517 11.5196 39.555 11.5196 28.4046C11.5196 25.2342 12.6542 22.6325 14.5063 20.6025C14.2117 19.8646 13.2055 16.9042 14.795 12.9025C14.795 12.9025 17.2363 12.118 22.7925 15.8805C25.1655 15.2349 27.6133 14.9054 30.0725 14.9005C32.5318 14.9044 34.9797 15.234 37.3525 15.8805C42.9117 12.115 45.35 12.9025 45.35 12.9025C46.9396 16.9042 45.9421 19.8646 45.6388 20.6025C47.5055 22.6325 48.6255 25.2313 48.6255 28.4046C48.6255 39.5842 41.8296 42.04 35.3488 42.7605C36.3842 43.6588 37.3175 45.4321 37.3175 48.1446C37.3175 52.0355 37.2825 55.1738 37.2825 56.1275C37.2825 56.9063 37.8017 57.8105 39.2863 57.5246C50.8421 53.6688 59.1663 42.7721 59.1663 29.9242C59.1663 13.8563 46.1434 0.833374 30.0755 0.833374Z" fill="#CCCCCC"/>
		<symbol id="rss" viewBox="0 0 47 47" fill="none">
			<path d="M7.02508 46.3333C10.5367 46.3333 13.3834 43.4866 13.3834 39.975C13.3834 36.4634 10.5367 33.6166 7.02508 33.6166C3.51347 33.6166 0.666748 36.4634 0.666748 39.975C0.666748 43.4866 3.51347 46.3333 7.02508 46.3333Z" fill="#CCCCCC"/>
			<path d="M0.666748 0.949829V9.204C21.1709 9.204 37.7959 25.829 37.7959 46.3332H46.0501C46.0501 21.279 25.7209 0.949829 0.666748 0.949829ZM0.666748 17.4582V25.7123C12.0417 25.7123 21.2876 34.9582 21.2876 46.3332H29.5417C29.5417 30.379 16.6209 17.4582 0.666748 17.4582Z" fill="#CCCCCC"/>
		</symbol>
	 </symbol>
	 <symbol id="lamp" viewBox="0 0 92 92" fill="none">
	 	<path d="M37.523 64.1362H54.4731H37.523ZM45.9999 13.3549V16.9821V13.3549ZM69.0837 22.9163L66.5192 25.4807L69.0837 22.9163ZM78.6451 46H75.0178H78.6451ZM16.982 46H13.3547H16.982ZM25.4806 25.4807L22.9161 22.9163L25.4806 25.4807ZM33.174 58.8259C30.6381 56.2894 28.9112 53.0578 28.2118 49.5398C27.5124 46.0219 27.8719 42.3756 29.2447 39.0619C30.6175 35.7482 32.9421 32.916 35.9245 30.9234C38.9068 28.9307 42.4131 27.8672 45.9999 27.8672C49.5867 27.8672 53.093 28.9307 56.0753 30.9234C59.0577 32.916 61.3823 35.7482 62.7551 39.0619C64.1279 42.3756 64.4874 46.0219 63.788 49.5398C63.0886 53.0578 61.3617 56.2894 58.8258 58.8259L56.8381 60.81C55.7017 61.9466 54.8003 63.2959 54.1854 64.7809C53.5705 66.2659 53.2542 67.8574 53.2544 69.4646V71.3907C53.2544 73.3147 52.4901 75.1599 51.1296 76.5204C49.7691 77.8809 47.9239 78.6452 45.9999 78.6452C44.0759 78.6452 42.2307 77.8809 40.8702 76.5204C39.5097 75.1599 38.7454 73.3147 38.7454 71.3907V69.4646C38.7454 66.2183 37.4541 63.1025 35.1617 60.81L33.174 58.8259Z" stroke="#EC7979" stroke-width="6.83333" stroke-linecap="round" stroke-linejoin="round"/>
		<circle cx="46" cy="46" r="45.5" stroke="#EC7979"/>
	 </symbol>
	 <symbol id="keyboard" viewBox="0 0 92 92" fill="none">
	<path d="M71.5731 23C73.5429 23 75.4319 23.7786 76.8247 25.1645C78.2175 26.5505 79 28.4302 79 30.3902V61.6098C79 63.5698 78.2175 65.4495 76.8247 66.8355C75.4319 68.2214 73.5429 69 71.5731 69H20.4269C19.4515 69 18.4858 68.8088 17.5847 68.4375C16.6837 68.0661 15.8649 67.5217 15.1753 66.8355C14.4856 66.1492 13.9386 65.3345 13.5653 64.4379C13.1921 63.5413 13 62.5803 13 61.6098V30.3902C13 28.4302 13.7825 26.5505 15.1753 25.1645C16.5681 23.7786 18.4571 23 20.4269 23H71.5731ZM71.5731 27.9268H20.4269C19.7703 27.9268 19.1406 28.1863 18.6763 28.6483C18.2121 29.1103 17.9512 29.7369 17.9512 30.3902V61.6098C17.9512 62.9696 19.0603 64.0732 20.4269 64.0732H71.5731C72.2297 64.0732 72.8594 63.8137 73.3237 63.3517C73.7879 62.8897 74.0488 62.2631 74.0488 61.6098V30.3902C74.0488 29.7369 73.7879 29.1103 73.3237 28.6483C72.8594 28.1863 72.2297 27.9268 71.5731 27.9268ZM28.6789 54.2031H63.3376C63.9648 54.2033 64.5686 54.4404 65.0269 54.8665C65.4852 55.2926 65.7639 55.876 65.8067 56.4986C65.8494 57.1213 65.6531 57.737 65.2572 58.2211C64.8614 58.7053 64.2956 59.0219 63.6743 59.107L63.3376 59.13H28.6789C28.0517 59.1298 27.4479 58.8927 26.9896 58.4666C26.5313 58.0405 26.2526 57.4571 26.2098 56.8345C26.1671 56.2118 26.3634 55.5961 26.7593 55.112C27.1551 54.6278 27.7209 54.3112 28.3422 54.2261L28.6789 54.2031H63.3376H28.6789ZM60.862 42.7072C61.7374 42.7072 62.577 43.0533 63.196 43.6693C63.815 44.2852 64.1628 45.1207 64.1628 45.9918C64.1628 46.8629 63.815 47.6983 63.196 48.3143C62.577 48.9303 61.7374 49.2763 60.862 49.2763C59.9865 49.2763 59.147 48.9303 58.5279 48.3143C57.9089 47.6983 57.5611 46.8629 57.5611 45.9918C57.5611 45.1207 57.9089 44.2852 58.5279 43.6693C59.147 43.0533 59.9865 42.7072 60.862 42.7072ZM41.0735 42.7072C41.949 42.7072 42.7885 43.0533 43.4076 43.6693C44.0266 44.2852 44.3743 45.1207 44.3743 45.9918C44.3743 46.8629 44.0266 47.6983 43.4076 48.3143C42.7885 48.9303 41.949 49.2763 41.0735 49.2763C40.1981 49.2763 39.3585 48.9303 38.7395 48.3143C38.1205 47.6983 37.7727 46.8629 37.7727 45.9918C37.7727 45.1207 38.1205 44.2852 38.7395 43.6693C39.3585 43.0533 40.1981 42.7072 41.0735 42.7072ZM31.171 42.7072C32.0465 42.7072 32.8861 43.0533 33.5051 43.6693C34.1241 44.2852 34.4719 45.1207 34.4719 45.9918C34.4719 46.8629 34.1241 47.6983 33.5051 48.3143C32.8861 48.9303 32.0465 49.2763 31.171 49.2763C30.2956 49.2763 29.456 48.9303 28.837 48.3143C28.218 47.6983 27.8702 46.8629 27.8702 45.9918C27.8702 45.1207 28.218 44.2852 28.837 43.6693C29.456 43.0533 30.2956 42.7072 31.171 42.7072ZM50.976 42.7072C51.8514 42.7072 52.691 43.0533 53.31 43.6693C53.9291 44.2852 54.2768 45.1207 54.2768 45.9918C54.2768 46.8629 53.9291 47.6983 53.31 48.3143C52.691 48.9303 51.8514 49.2763 50.976 49.2763C50.1006 49.2763 49.261 48.9303 48.642 48.3143C48.0229 47.6983 47.6752 46.8629 47.6752 45.9918C47.6752 45.1207 48.0229 44.2852 48.642 43.6693C49.261 43.0533 50.1006 42.7072 50.976 42.7072ZM26.2033 32.8536C27.0787 32.8536 27.9183 33.1997 28.5373 33.8156C29.1564 34.4316 29.5041 35.2671 29.5041 36.1382C29.5041 37.0093 29.1564 37.8447 28.5373 38.4607C27.9183 39.0767 27.0787 39.4227 26.2033 39.4227C25.3279 39.4227 24.4883 39.0767 23.8693 38.4607C23.2502 37.8447 22.9025 37.0093 22.9025 36.1382C22.9025 35.2671 23.2502 34.4316 23.8693 33.8156C24.4883 33.1997 25.3279 32.8536 26.2033 32.8536ZM36.0893 32.8536C36.9647 32.8536 37.8043 33.1997 38.4233 33.8156C39.0423 34.4316 39.3901 35.2671 39.3901 36.1382C39.3901 37.0093 39.0423 37.8447 38.4233 38.4607C37.8043 39.0767 36.9647 39.4227 36.0893 39.4227C35.2138 39.4227 34.3743 39.0767 33.7552 38.4607C33.1362 37.8447 32.7884 37.0093 32.7884 36.1382C32.7884 35.2671 33.1362 34.4316 33.7552 33.8156C34.3743 33.1997 35.2138 32.8536 36.0893 32.8536ZM45.9917 32.8536C46.8672 32.8536 47.7068 33.1997 48.3258 33.8156C48.9448 34.4316 49.2926 35.2671 49.2926 36.1382C49.2926 37.0093 48.9448 37.8447 48.3258 38.4607C47.7068 39.0767 46.8672 39.4227 45.9917 39.4227C45.1163 39.4227 44.2767 39.0767 43.6577 38.4607C43.0387 37.8447 42.6909 37.0093 42.6909 36.1382C42.6909 35.2671 43.0387 34.4316 43.6577 33.8156C44.2767 33.1997 45.1163 32.8536 45.9917 32.8536ZM55.8942 32.8536C56.7697 32.8536 57.6092 33.1997 58.2283 33.8156C58.8473 34.4316 59.195 35.2671 59.195 36.1382C59.195 37.0093 58.8473 37.8447 58.2283 38.4607C57.6092 39.0767 56.7697 39.4227 55.8942 39.4227C55.0188 39.4227 54.1792 39.0767 53.5602 38.4607C52.9412 37.8447 52.5934 37.0093 52.5934 36.1382C52.5934 35.2671 52.9412 34.4316 53.5602 33.8156C54.1792 33.1997 55.0188 32.8536 55.8942 32.8536ZM65.7967 32.8536C66.6721 32.8536 67.5117 33.1997 68.1307 33.8156C68.7498 34.4316 69.0975 35.2671 69.0975 36.1382C69.0975 37.0093 68.7498 37.8447 68.1307 38.4607C67.5117 39.0767 66.6721 39.4227 65.7967 39.4227C64.9213 39.4227 64.0817 39.0767 63.4627 38.4607C62.8436 37.8447 62.4959 37.0093 62.4959 36.1382C62.4959 35.2671 62.8436 34.4316 63.4627 33.8156C64.0817 33.1997 64.9213 32.8536 65.7967 32.8536Z" fill="#EC7979"/>
<circle cx="46" cy="46" r="45.5" stroke="#EC7979"/>
	 </symbol>
	 <symbol id="lightning" viewBox="39 39 92 92" fill="none">
	 <path d="M75.7308 117.811C75.2572 117.608 74.8637 117.249 74.6123 116.793C74.3608 116.336 74.2659 115.807 74.3423 115.289L78.5542 87.3575H67.3765C67.0221 87.3672 66.6703 87.2939 66.3482 87.1432C66.026 86.9925 65.7422 86.7684 65.5186 86.4882C65.2949 86.2081 65.1375 85.8793 65.0584 85.5274C64.9793 85.1754 64.9806 84.8096 65.0622 84.4583L72.0049 53.8158C72.1271 53.2885 72.4239 52.8201 72.8454 52.4895C73.2669 52.1589 73.7874 51.9864 74.3192 52.0008H97.4615C97.8072 51.9996 98.1488 52.0774 98.4612 52.2283C98.7735 52.3792 99.0488 52.5995 99.2666 52.873C99.4875 53.1495 99.6439 53.4735 99.724 53.8206C99.8042 54.1676 99.806 54.5287 99.7294 54.8765L95.7258 73.2149H106.718C107.152 73.214 107.577 73.3373 107.946 73.5706C108.314 73.804 108.61 74.1381 108.801 74.5348C108.967 74.9156 109.031 75.3343 108.986 75.7484C108.941 76.1624 108.79 76.557 108.547 76.892L78.4616 116.963C78.2583 117.27 77.9868 117.524 77.6692 117.704C77.3515 117.884 76.9967 117.986 76.6334 118C76.3237 117.994 76.0178 117.93 75.7308 117.811ZM89.9402 77.9291L94.5687 56.7151H76.1705L70.2924 82.6433H83.9695L80.2899 106.874L102.09 77.9291H89.9402Z" fill="#EC7979"/>
<circle cx="85" cy="85" r="45.5" stroke="#EC7979"/></symbol>

	  <symbol id="icon_burger" viewBox="0 0 24 18" fill="none">
 <path d="M0 0H24V3H0V0ZM0 7.5H24V10.5H0V7.5ZM0 15H24V18H0V15Z" fill="white"/>
 </symbol>

 	<symbol width="130" height="10" viewBox="0 0 130 10" id="dots" fill="none">
		<circle cx="124.744" cy="4.74388" r="4.24388" stroke="#86878B"/>
	<circle cx="64.7439" cy="4.74388" r="4.24388" fill="#86878B" stroke="#86878B"/>
	<circle cx="4.74388" cy="4.74388" r="4.24388" stroke="#86878B"/>
	</symbol>
</svg>